<svg width="129" height="139" viewBox="0 0 129 139" fill="none" xmlns="http://www.w3.org/2000/svg">
<path d="M29.7387 51.1346C20.8062 53.5272 15.2234 62.1407 16.8185 68.2021C18.4136 74.2634 24.4749 67.4045 33.4074 65.0119C42.34 62.6192 50.9535 65.4904 49.3584 59.5886C47.7633 53.6867 38.8308 48.7419 29.7387 51.1346" fill="#42ADE2"/>
<path d="M22.8799 48.2634C25.5916 47.3064 25.9106 41.4045 24.475 37.4168C23.0394 33.4291 19.6897 31.0364 16.9781 31.9935C14.2664 32.9505 13.3093 36.9383 14.7449 40.926C16.1805 44.9137 20.1682 49.38 22.8799 48.2634" fill="#42ADE2"/>
<path d="M33.886 45.2327C36.7572 44.9137 38.6713 39.3309 38.1928 35.1836C37.8738 31.0364 35.1621 27.8462 32.2909 28.0057C29.4198 28.3247 27.3461 31.834 27.8247 36.1407C28.1437 40.2879 31.0149 45.5518 33.886 45.2327Z" fill="#42ADE2"/>
<path d="M46.6469 32.9504C43.7757 32.9504 41.3831 36.3001 41.3831 40.6069C41.3831 44.9136 43.7757 50.1774 46.6469 50.1774C49.518 50.1774 51.9107 44.7541 51.9107 40.6069C51.9107 36.3001 49.518 32.9504 46.6469 32.9504Z" fill="#42ADE2"/>
<path d="M6.1314 43.7972C3.57925 45.2328 3.26024 49.3801 5.49337 53.0488C7.56699 56.7175 12.3523 60.2267 14.9044 58.7911C17.4566 57.3555 16.659 51.4537 14.5854 47.785C12.5118 44.1163 8.68355 42.3617 6.1314 43.7972" fill="#42ADE2"/>
<path d="M74.0825 86.386C65.15 83.9934 55.8984 88.7787 54.4628 94.6805C53.0272 100.582 61.4812 97.7112 70.4138 100.104C79.3463 102.496 85.4076 109.355 87.0027 103.294C88.5978 97.2327 83.015 88.7787 74.0825 86.386" fill="#42ADE2"/>
<path d="M80.9412 83.6743C83.6529 84.6314 87.6406 80.3246 89.0762 76.3369C90.5118 72.3492 89.5547 68.3614 86.8431 67.4044C84.1314 66.4473 80.7817 68.8399 79.3461 72.8277C77.9106 76.8154 78.2296 82.7173 80.9412 83.6743" fill="#42ADE2"/>
<path d="M69.9352 80.6438C72.8064 80.9628 75.6775 75.699 75.9966 71.5518C76.3156 67.4045 74.4015 63.7358 71.5303 63.4168C68.6591 63.0978 65.9475 66.4475 65.6285 70.5947C65.1499 74.742 67.064 80.3248 69.9352 80.6438" fill="#42ADE2"/>
<path d="M57.1745 85.5888C60.0456 85.5888 62.4383 80.1655 62.4383 76.0183C62.4383 71.871 60.0456 68.3618 57.1745 68.3618C54.3033 68.3618 51.9106 71.7115 51.9106 76.0183C51.9106 80.1655 54.3033 85.5888 57.1745 85.5888Z" fill="#42ADE2"/>
<path d="M97.6897 79.0485C95.1375 77.6129 91.4688 79.3675 89.3952 83.0362C87.3216 86.7049 86.524 92.6068 89.0762 94.0423C91.6283 95.4779 96.2541 91.9687 98.4872 88.3C100.72 84.6313 100.082 80.484 97.6897 79.0485" fill="#42ADE2"/>
</svg>
