<svg width="210" height="132" viewBox="0 0 210 132" fill="none" xmlns="http://www.w3.org/2000/svg">
<g filter="url(#filter0_d_303_63)">
<path d="M170 32H40C35.5817 32 32 35.5817 32 40V92C32 96.4183 35.5817 100 40 100H170C174.418 100 178 96.4183 178 92V40C178 35.5817 174.418 32 170 32Z" fill="white"/>
</g>
<g filter="url(#filter1_d_303_63)">
<path d="M29.5385 110.077C37.5679 110.077 44.077 103.568 44.077 95.5385C44.077 87.5091 37.5679 81 29.5385 81C21.5091 81 15 87.5091 15 95.5385C15 103.568 21.5091 110.077 29.5385 110.077Z" fill="#FD4A4A"/>
</g>
<path d="M22.2692 95.5385L27.1154 100.385L36.8077 90.6924" stroke="#F9FAFA" stroke-width="2" stroke-linecap="round" stroke-linejoin="round"/>
<path d="M75.56 81.4C75.56 80.3013 75.8053 79.32 76.296 78.456C76.7973 77.5813 77.4747 76.904 78.328 76.424C79.192 75.9333 80.1573 75.688 81.224 75.688C82.472 75.688 83.5653 76.008 84.504 76.648C85.4427 77.288 86.0987 78.1733 86.472 79.304H83.896C83.64 78.7707 83.2773 78.3707 82.808 78.104C82.3493 77.8373 81.816 77.704 81.208 77.704C80.5573 77.704 79.976 77.8587 79.464 78.168C78.9627 78.4667 78.568 78.8933 78.28 79.448C78.0027 80.0027 77.864 80.6533 77.864 81.4C77.864 82.136 78.0027 82.7867 78.28 83.352C78.568 83.9067 78.9627 84.3387 79.464 84.648C79.976 84.9467 80.5573 85.096 81.208 85.096C81.816 85.096 82.3493 84.9627 82.808 84.696C83.2773 84.4187 83.64 84.0133 83.896 83.48H86.472C86.0987 84.6213 85.4427 85.512 84.504 86.152C83.576 86.7813 82.4827 87.096 81.224 87.096C80.1573 87.096 79.192 86.856 78.328 86.376C77.4747 85.8853 76.7973 85.208 76.296 84.344C75.8053 83.48 75.56 82.4987 75.56 81.4ZM90.6253 75.16V87H88.3853V75.16H90.6253ZM93.9744 77.08C93.5797 77.08 93.249 76.9573 92.9824 76.712C92.7264 76.456 92.5984 76.1413 92.5984 75.768C92.5984 75.3947 92.7264 75.0853 92.9824 74.84C93.249 74.584 93.5797 74.456 93.9744 74.456C94.369 74.456 94.6944 74.584 94.9504 74.84C95.217 75.0853 95.3504 75.3947 95.3504 75.768C95.3504 76.1413 95.217 76.456 94.9504 76.712C94.6944 76.9573 94.369 77.08 93.9744 77.08ZM95.0784 78.136V87H92.8384V78.136H95.0784ZM105.532 82.376C105.532 82.696 105.51 82.984 105.468 83.24H98.9875C99.0408 83.88 99.2648 84.3813 99.6595 84.744C100.054 85.1067 100.54 85.288 101.116 85.288C101.948 85.288 102.54 84.9307 102.892 84.216H105.308C105.052 85.0693 104.561 85.7733 103.836 86.328C103.11 86.872 102.22 87.144 101.164 87.144C100.31 87.144 99.5422 86.9573 98.8595 86.584C98.1875 86.2 97.6595 85.6613 97.2755 84.968C96.9022 84.2747 96.7155 83.4747 96.7155 82.568C96.7155 81.6507 96.9022 80.8453 97.2755 80.152C97.6488 79.4587 98.1715 78.9253 98.8435 78.552C99.5155 78.1787 100.289 77.992 101.164 77.992C102.006 77.992 102.758 78.1733 103.42 78.536C104.092 78.8987 104.609 79.416 104.972 80.088C105.345 80.7493 105.532 81.512 105.532 82.376ZM103.212 81.736C103.201 81.16 102.993 80.7013 102.588 80.36C102.182 80.008 101.686 79.832 101.1 79.832C100.545 79.832 100.076 80.0027 99.6915 80.344C99.3182 80.6747 99.0888 81.1387 99.0035 81.736H103.212ZM112.079 78.008C113.135 78.008 113.988 78.344 114.639 79.016C115.289 79.6773 115.615 80.6053 115.615 81.8V87H113.375V82.104C113.375 81.4 113.199 80.8613 112.847 80.488C112.495 80.104 112.015 79.912 111.407 79.912C110.788 79.912 110.297 80.104 109.935 80.488C109.583 80.8613 109.407 81.4 109.407 82.104V87H107.167V78.136H109.407V79.24C109.705 78.856 110.084 78.5573 110.543 78.344C111.012 78.12 111.524 78.008 112.079 78.008ZM120.353 79.976V84.264C120.353 84.5627 120.422 84.7813 120.561 84.92C120.71 85.048 120.955 85.112 121.297 85.112H122.337V87H120.929C119.041 87 118.097 86.0827 118.097 84.248V79.976H117.041V78.136H118.097V75.944H120.353V78.136H122.337V79.976H120.353ZM135.904 79.288C135.904 79.8853 135.76 80.4453 135.472 80.968C135.195 81.4907 134.752 81.912 134.144 82.232C133.547 82.552 132.79 82.712 131.872 82.712H130V87H127.76V75.832H131.872C132.736 75.832 133.472 75.9813 134.08 76.28C134.688 76.5787 135.142 76.9893 135.44 77.512C135.75 78.0347 135.904 78.6267 135.904 79.288ZM131.776 80.904C132.395 80.904 132.854 80.7653 133.152 80.488C133.451 80.2 133.6 79.8 133.6 79.288C133.6 78.2 132.992 77.656 131.776 77.656H130V80.904H131.776ZM145.863 78.136V87H143.607V85.88C143.319 86.264 142.94 86.568 142.471 86.792C142.012 87.0053 141.511 87.112 140.967 87.112C140.273 87.112 139.66 86.968 139.127 86.68C138.593 86.3813 138.172 85.9493 137.863 85.384C137.564 84.808 137.415 84.1253 137.415 83.336V78.136H139.655V83.016C139.655 83.72 139.831 84.264 140.183 84.648C140.535 85.0213 141.015 85.208 141.623 85.208C142.241 85.208 142.727 85.0213 143.079 84.648C143.431 84.264 143.607 83.72 143.607 83.016V78.136H145.863ZM147.497 82.536C147.497 81.64 147.673 80.8453 148.025 80.152C148.387 79.4587 148.873 78.9253 149.481 78.552C150.099 78.1787 150.787 77.992 151.545 77.992C152.206 77.992 152.782 78.1253 153.273 78.392C153.774 78.6587 154.174 78.9947 154.473 79.4V78.136H156.729V87H154.473V85.704C154.185 86.12 153.785 86.4667 153.273 86.744C152.771 87.0107 152.19 87.144 151.529 87.144C150.782 87.144 150.099 86.952 149.481 86.568C148.873 86.184 148.387 85.6453 148.025 84.952C147.673 84.248 147.497 83.4427 147.497 82.536ZM154.473 82.568C154.473 82.024 154.366 81.56 154.153 81.176C153.939 80.7813 153.651 80.4827 153.289 80.28C152.926 80.0667 152.537 79.96 152.121 79.96C151.705 79.96 151.321 80.0613 150.969 80.264C150.617 80.4667 150.329 80.7653 150.105 81.16C149.891 81.544 149.785 82.0027 149.785 82.536C149.785 83.0693 149.891 83.5387 150.105 83.944C150.329 84.3387 150.617 84.6427 150.969 84.856C151.331 85.0693 151.715 85.176 152.121 85.176C152.537 85.176 152.926 85.0747 153.289 84.872C153.651 84.6587 153.939 84.36 154.153 83.976C154.366 83.5813 154.473 83.112 154.473 82.568ZM162.309 87.144C161.583 87.144 160.933 87.016 160.357 86.76C159.781 86.4933 159.322 86.136 158.981 85.688C158.65 85.24 158.469 84.744 158.437 84.2H160.693C160.735 84.5413 160.901 84.824 161.189 85.048C161.487 85.272 161.855 85.384 162.293 85.384C162.719 85.384 163.05 85.2987 163.285 85.128C163.53 84.9573 163.653 84.7387 163.653 84.472C163.653 84.184 163.503 83.9707 163.205 83.832C162.917 83.6827 162.453 83.5227 161.812 83.352C161.151 83.192 160.607 83.0267 160.181 82.856C159.765 82.6853 159.402 82.424 159.093 82.072C158.794 81.72 158.645 81.2453 158.645 80.648C158.645 80.1573 158.783 79.7093 159.061 79.304C159.349 78.8987 159.754 78.5787 160.277 78.344C160.81 78.1093 161.434 77.992 162.149 77.992C163.205 77.992 164.047 78.2587 164.677 78.792C165.306 79.3147 165.653 80.024 165.717 80.92H163.573C163.541 80.568 163.391 80.2907 163.125 80.088C162.869 79.8747 162.522 79.768 162.085 79.768C161.679 79.768 161.365 79.8427 161.141 79.992C160.927 80.1413 160.821 80.3493 160.821 80.616C160.821 80.9147 160.97 81.144 161.269 81.304C161.567 81.4533 162.031 81.608 162.661 81.768C163.301 81.928 163.829 82.0933 164.245 82.264C164.661 82.4347 165.018 82.7013 165.317 83.064C165.626 83.416 165.786 83.8853 165.797 84.472C165.797 84.984 165.653 85.4427 165.365 85.848C165.087 86.2533 164.682 86.5733 164.149 86.808C163.626 87.032 163.013 87.144 162.309 87.144Z" fill="#274052"/>
<path d="M136.864 60.896C136.971 61.504 137.216 61.9733 137.6 62.304C137.995 62.6347 138.523 62.8 139.184 62.8C140.069 62.8 140.72 62.4533 141.136 61.76C141.563 61.0667 141.765 59.8987 141.744 58.256C141.52 58.736 141.147 59.1147 140.624 59.392C140.101 59.6587 139.52 59.792 138.88 59.792C138.165 59.792 137.525 59.648 136.96 59.36C136.405 59.0613 135.968 58.6293 135.648 58.064C135.328 57.4987 135.168 56.816 135.168 56.016C135.168 54.8747 135.499 53.9573 136.16 53.264C136.821 52.56 137.76 52.208 138.976 52.208C140.469 52.208 141.515 52.6933 142.112 53.664C142.72 54.6347 143.024 56.08 143.024 58C143.024 59.344 142.901 60.4533 142.656 61.328C142.421 62.2027 142.016 62.8693 141.44 63.328C140.875 63.7867 140.096 64.016 139.104 64.016C138.016 64.016 137.168 63.7227 136.56 63.136C135.952 62.5493 135.605 61.8027 135.52 60.896H136.864ZM139.12 58.56C139.835 58.56 140.421 58.3413 140.88 57.904C141.339 57.456 141.568 56.8533 141.568 56.096C141.568 55.296 141.344 54.6507 140.896 54.16C140.448 53.6693 139.819 53.424 139.008 53.424C138.261 53.424 137.664 53.6587 137.216 54.128C136.779 54.5973 136.56 55.216 136.56 55.984C136.56 56.7627 136.779 57.3867 137.216 57.856C137.653 58.3253 138.288 58.56 139.12 58.56ZM152.446 53.696H146.83V57.344C147.075 57.0027 147.438 56.7253 147.918 56.512C148.398 56.288 148.915 56.176 149.47 56.176C150.355 56.176 151.075 56.3627 151.63 56.736C152.185 57.0987 152.579 57.5733 152.814 58.16C153.059 58.736 153.182 59.3493 153.182 60C153.182 60.768 153.038 61.456 152.75 62.064C152.462 62.672 152.019 63.152 151.422 63.504C150.835 63.856 150.105 64.032 149.23 64.032C148.11 64.032 147.203 63.744 146.51 63.168C145.817 62.592 145.395 61.824 145.246 60.864H146.67C146.809 61.472 147.102 61.9467 147.55 62.288C147.998 62.6293 148.563 62.8 149.246 62.8C150.089 62.8 150.723 62.5493 151.15 62.048C151.577 61.536 151.79 60.864 151.79 60.032C151.79 59.2 151.577 58.56 151.15 58.112C150.723 57.6533 150.094 57.424 149.262 57.424C148.697 57.424 148.201 57.5627 147.774 57.84C147.358 58.1067 147.054 58.4747 146.862 58.944H145.486V52.416H152.446V53.696ZM154.797 55.04C154.797 54.3147 155.016 53.7387 155.453 53.312C155.89 52.8747 156.45 52.656 157.133 52.656C157.816 52.656 158.376 52.8747 158.813 53.312C159.25 53.7387 159.469 54.3147 159.469 55.04C159.469 55.776 159.25 56.3627 158.813 56.8C158.376 57.2267 157.816 57.44 157.133 57.44C156.45 57.44 155.89 57.2267 155.453 56.8C155.016 56.3627 154.797 55.776 154.797 55.04ZM164.141 52.832L157.661 64H156.221L162.701 52.832H164.141ZM157.133 53.552C156.77 53.552 156.482 53.68 156.269 53.936C156.066 54.1813 155.965 54.5493 155.965 55.04C155.965 55.5307 156.066 55.904 156.269 56.16C156.482 56.416 156.77 56.544 157.133 56.544C157.496 56.544 157.784 56.416 157.997 56.16C158.21 55.8933 158.317 55.52 158.317 55.04C158.317 54.5493 158.21 54.1813 157.997 53.936C157.784 53.68 157.496 53.552 157.133 53.552ZM160.925 61.792C160.925 61.056 161.144 60.4747 161.581 60.048C162.018 59.6107 162.578 59.392 163.261 59.392C163.944 59.392 164.498 59.6107 164.925 60.048C165.362 60.4747 165.581 61.056 165.581 61.792C165.581 62.5173 165.362 63.0987 164.925 63.536C164.498 63.9733 163.944 64.192 163.261 64.192C162.578 64.192 162.018 63.9787 161.581 63.552C161.144 63.1147 160.925 62.528 160.925 61.792ZM163.245 60.304C162.882 60.304 162.594 60.432 162.381 60.688C162.168 60.9333 162.061 61.3013 162.061 61.792C162.061 62.272 162.168 62.64 162.381 62.896C162.594 63.1413 162.882 63.264 163.245 63.264C163.608 63.264 163.896 63.1413 164.109 62.896C164.322 62.64 164.429 62.272 164.429 61.792C164.429 61.3013 164.322 60.9333 164.109 60.688C163.896 60.432 163.608 60.304 163.245 60.304Z" fill="black"/>
<path d="M65.7722 50.6668C65.3399 52.4767 69.7184 56.2558 70.9924 56.5599C72.2664 56.8639 71.6741 52.9903 71.6159 50.8199C71.5538 48.5843 71.6089 46.3246 70.3349 46.0205C69.0622 45.7169 66.2031 48.8573 65.7722 50.6668Z" fill="#7094A6"/>
<path d="M65.9887 52.08C65.6142 53.6511 69.4161 56.9319 70.5217 57.197C71.6272 57.46 71.114 54.096 71.0624 52.2122C71.009 50.2719 71.0572 48.3097 69.9512 48.045C68.8456 47.7807 66.3628 50.509 65.9874 52.08" fill="#EDA75A"/>
<path d="M50.1775 50.6668C50.6102 52.4767 46.2312 56.2558 44.9577 56.5599C43.6837 56.8639 44.2743 52.9903 44.3342 50.8199C44.3946 48.5843 44.3412 46.3246 45.6135 46.0205C46.8879 45.7169 49.7465 48.8573 50.1775 50.6668" fill="#7094A6"/>
<path d="M50.0558 52.0799C50.4317 53.651 46.6289 56.9318 45.5229 57.1965C44.4169 57.4594 44.9305 54.0955 44.9822 52.2116C45.0355 50.2713 44.9892 48.3091 46.0947 48.0444C47.199 47.7806 49.6818 50.5089 50.0541 52.0799" fill="#EDA75A"/>
<path d="M71.8032 59.7502C71.8032 67.4292 65.5802 73.6513 57.9021 73.6513C50.2231 73.6513 44.0005 67.4288 44.0005 59.7502C44.0005 52.0712 50.2231 46.728 57.9016 46.728C65.5802 46.728 71.8032 52.0712 71.8032 59.7502Z" fill="#87B1C1"/>
<path d="M59.8025 58.5629C59.8025 60.9018 61.0673 62.794 62.6279 62.794C64.1884 62.794 65.4532 60.9018 65.4532 58.5629C65.4532 56.2262 64.1884 54.3323 62.6279 54.3323C61.0673 54.3323 59.8025 56.2262 59.8025 58.5629" fill="white"/>
<path d="M60.8 58.5628C60.8 59.7869 61.6173 60.7791 62.6279 60.7791C63.6385 60.7791 64.4549 59.7869 64.4549 58.5628C64.4549 57.3386 63.6385 56.3459 62.6279 56.3459C61.6173 56.3459 60.8 57.3386 60.8 58.5628Z" fill="#25333A"/>
<path d="M59.0732 56.7652C59.8913 53.855 63.6105 52.3163 66.3825 52.2852C67.1923 52.2765 67.3765 53.5404 66.5553 53.5491C64.2217 53.575 60.9667 54.5278 60.264 57.0242C60.0405 57.8161 58.8522 57.5483 59.0732 56.7652Z" fill="#394C54"/>
<path d="M56.0033 58.4184C56.0033 60.7568 54.7385 62.649 53.1779 62.649C51.6174 62.649 50.3525 60.7568 50.3525 58.4184C50.3525 56.0817 51.6174 54.1877 53.1779 54.1877C54.7385 54.1877 56.0033 56.0817 56.0033 58.4184" fill="white"/>
<path d="M53.1779 60.6353C54.1874 60.6353 55.0057 59.6428 55.0057 58.4185C55.0057 57.1942 54.1874 56.2017 53.1779 56.2017C52.1683 56.2017 51.35 57.1942 51.35 58.4185C51.35 59.6428 52.1683 60.6353 53.1779 60.6353Z" fill="#25333A"/>
<path d="M56.7313 56.6207C55.9132 53.7105 52.194 52.1722 49.4211 52.1412C48.6122 52.1324 48.4275 53.3963 49.2492 53.4051C51.5828 53.4309 54.8382 54.3838 55.5404 56.8802C55.7635 57.6716 56.9518 57.4038 56.7313 56.6207Z" fill="#394C54"/>
<path d="M55.5299 63.0976C55.5299 61.9697 56.4898 61.9903 57.7997 61.9903C59.1095 61.9903 60.272 61.9697 60.272 63.0976C60.272 64.2272 59.2106 65.1424 57.9007 65.1424C56.593 65.1424 55.5299 64.2272 55.5299 63.0976" fill="#394C54"/>
<path d="M53.0711 58.3952C53.3669 58.3952 53.6066 57.8617 53.6066 57.2035C53.6066 56.5453 53.3669 56.0117 53.0711 56.0117C52.7754 56.0117 52.5356 56.5453 52.5356 57.2035C52.5356 57.8617 52.7754 58.3952 53.0711 58.3952Z" fill="white"/>
<path d="M62.6319 58.3952C62.9279 58.3952 63.1678 57.8617 63.1678 57.2035C63.1678 56.5453 62.9279 56.0117 62.6319 56.0117C62.3359 56.0117 62.0959 56.5453 62.0959 57.2035C62.0959 57.8617 62.3359 58.3952 62.6319 58.3952Z" fill="white"/>
<path d="M58.4139 68.995C58.4139 69.205 58.1829 69.3752 57.9007 69.3752C57.6176 69.3752 57.3879 69.205 57.3879 68.995V66.6837C57.3879 66.4737 57.6172 66.3035 57.9007 66.3035C58.1833 66.3035 58.4139 66.4737 58.4139 66.6837V68.995Z" fill="#394C54"/>
<path d="M56.1524 69.0755C58.5084 69.2781 60.9641 69.2194 63.1612 67.9809C64.1862 67.4029 64.9199 66.2029 65.1024 66.699C65.5053 67.798 64.223 69.3371 63.6284 69.6316C61.213 70.8251 58.6164 70.8281 56.0837 70.612C55.9772 70.6025 55.8734 70.5728 55.7779 70.5245C55.4533 70.3526 55.2901 69.9474 55.3977 69.5817C55.4971 69.2439 55.7924 69.0444 56.152 69.0755" fill="#394C54"/>
<path d="M54.1719 64.294C54.1531 64.6239 53.9256 64.8798 53.6626 64.8658L46.2531 64.4471C45.9911 64.4318 45.7929 64.1518 45.8112 63.8202C45.8301 63.4903 46.0584 63.2344 46.3205 63.2484L53.7304 63.667C53.9929 63.6828 54.1902 63.9628 54.1723 64.294" fill="#5E7D89"/>
<path d="M53.8783 65.6813C53.9325 65.9941 53.7995 66.2763 53.5838 66.3139L47.4606 67.3762C47.244 67.4138 47.0244 67.1915 46.9702 66.88C46.9159 66.569 47.0485 66.2859 47.2646 66.2483L53.3874 65.186C53.6044 65.1484 53.824 65.3707 53.8783 65.6813Z" fill="#5E7D89"/>
<path d="M61.1937 64.1623C61.2125 64.4917 61.44 64.7477 61.7029 64.7341L69.1129 64.315C69.3741 64.2997 69.5731 64.0197 69.5548 63.6881C69.5359 63.3586 69.3076 63.1027 69.0455 63.1162L61.6356 63.5354C61.3726 63.5507 61.1753 63.8307 61.1937 64.1623" fill="#5E7D89"/>
<path d="M61.4864 65.5496C61.4326 65.862 61.5639 66.1442 61.7813 66.1823L67.9041 67.2445C68.1202 67.2821 68.3403 67.0599 68.3941 66.748C68.4484 66.4373 68.3158 66.1543 68.0988 66.1162L61.976 65.054C61.7603 65.0163 61.5407 65.2386 61.4864 65.5496Z" fill="#5E7D89"/>
<defs>
<filter id="filter0_d_303_63" x="8" y="8" width="194" height="116" filterUnits="userSpaceOnUse" color-interpolation-filters="sRGB">
<feFlood flood-opacity="0" result="BackgroundImageFix"/>
<feColorMatrix in="SourceAlpha" type="matrix" values="0 0 0 0 0 0 0 0 0 0 0 0 0 0 0 0 0 0 127 0" result="hardAlpha"/>
<feOffset/>
<feGaussianBlur stdDeviation="12"/>
<feColorMatrix type="matrix" values="0 0 0 0 0.387784 0 0 0 0 0.387784 0 0 0 0 0.387784 0 0 0 0.09 0"/>
<feBlend mode="normal" in2="BackgroundImageFix" result="effect1_dropShadow_303_63"/>
<feBlend mode="normal" in="SourceGraphic" in2="effect1_dropShadow_303_63" result="shape"/>
</filter>
<filter id="filter1_d_303_63" x="14" y="80" width="31.077" height="31.0769" filterUnits="userSpaceOnUse" color-interpolation-filters="sRGB">
<feFlood flood-opacity="0" result="BackgroundImageFix"/>
<feColorMatrix in="SourceAlpha" type="matrix" values="0 0 0 0 0 0 0 0 0 0 0 0 0 0 0 0 0 0 127 0" result="hardAlpha"/>
<feOffset/>
<feGaussianBlur stdDeviation="0.5"/>
<feColorMatrix type="matrix" values="0 0 0 0 0.992157 0 0 0 0 0.290196 0 0 0 0 0.290196 0 0 0 0.22 0"/>
<feBlend mode="normal" in2="BackgroundImageFix" result="effect1_dropShadow_303_63"/>
<feBlend mode="normal" in="SourceGraphic" in2="effect1_dropShadow_303_63" result="shape"/>
</filter>
</defs>
</svg>
