<svg width="210" height="132" viewBox="0 0 210 132" fill="none" xmlns="http://www.w3.org/2000/svg">
<g filter="url(#filter0_d_302_5)">
<path d="M170 32H40C35.5817 32 32 35.5817 32 40V92C32 96.4183 35.5817 100 40 100H170C174.418 100 178 96.4183 178 92V40C178 35.5817 174.418 32 170 32Z" fill="white"/>
</g>
<g filter="url(#filter1_d_302_5)">
<path d="M172.538 55.077C180.567 55.077 187.077 48.5679 187.077 40.5385C187.077 32.5091 180.567 26 172.538 26C164.509 26 158 32.5091 158 40.5385C158 48.5679 164.509 55.077 172.538 55.077Z" fill="#FD4A4A"/>
</g>
<path d="M165.269 40.5386L170.115 45.3847L179.808 35.6924" stroke="#F9FAFA" stroke-width="2" stroke-linecap="round" stroke-linejoin="round"/>
<g clip-path="url(#clip0_302_5)">
<path d="M50.9898 59.6994C51.4043 60.308 51.8742 60.8769 52.3934 61.3989C57.0862 66.0909 64.6915 66.0928 69.3846 61.3989C74.0778 56.7066 74.077 49.1012 69.3839 44.4077C64.6919 39.7176 57.0865 39.7157 52.3927 44.4077C50.4637 46.336 49.342 48.7573 48.9989 51.2657L54.3415 50.287L50.9887 59.6994" fill="#C2986B"/>
<path d="M60.2031 46.1563C60.2028 46.7923 59.95 47.4021 59.5002 47.8517C59.0504 48.3014 58.4405 48.554 57.8046 48.5541C57.1758 48.543 56.5765 48.2854 56.1358 47.8368C55.6951 47.3882 55.4481 46.7845 55.4481 46.1556C55.4481 45.5267 55.6951 44.923 56.1358 44.4744C56.5765 44.0258 57.1758 43.7682 57.8046 43.7571C58.4408 43.7573 59.0508 44.0101 59.5006 44.4601C59.9504 44.91 60.2031 45.5201 60.2031 46.1563" fill="#02897D"/>
<path d="M64.3282 50.0758C65.6524 50.0758 66.7259 49.0023 66.7259 47.678C66.7259 46.3538 65.6524 45.2803 64.3282 45.2803C63.0039 45.2803 61.9304 46.3538 61.9304 47.678C61.9304 49.0023 63.0039 50.0758 64.3282 50.0758Z" fill="#E45264"/>
<path d="M67.7429 56.753C69.0673 56.753 70.141 55.6794 70.141 54.3549C70.141 53.0305 69.0673 51.9568 67.7429 51.9568C66.4184 51.9568 65.3447 53.0305 65.3447 54.3549C65.3447 55.6794 66.4184 56.753 67.7429 56.753Z" fill="#405967"/>
<path d="M65.5226 60.7737C65.5226 61.4096 65.2699 62.0196 64.8202 62.4693C64.3705 62.919 63.7606 63.1716 63.1246 63.1716C62.4886 63.1716 61.8787 62.919 61.429 62.4693C60.9793 62.0196 60.7267 61.4096 60.7267 60.7737C60.7267 60.1377 60.9793 59.5278 61.429 59.0781C61.8787 58.6284 62.4886 58.3757 63.1246 58.3757C63.7606 58.3757 64.3705 58.6284 64.8202 59.0781C65.2699 59.5278 65.5226 60.1377 65.5226 60.7737" fill="#ED2E7C"/>
<path d="M57.8058 59.4575C57.8058 60.0935 57.5531 60.7034 57.1034 61.1532C56.6536 61.6029 56.0437 61.8556 55.4076 61.8556C54.7716 61.8556 54.1617 61.6029 53.7119 61.1532C53.2622 60.7034 53.0095 60.0935 53.0095 59.4575C53.0095 58.8214 53.2622 58.2115 53.7119 57.7617C54.1617 57.312 54.7716 57.0593 55.4076 57.0593C56.0437 57.0593 56.6536 57.312 57.1034 57.7617C57.5531 58.2115 57.8058 58.8214 57.8058 59.4575" fill="#E7E6E6"/>
</g>
<path d="M58.248 78.288C58.248 78.8853 58.104 79.4453 57.816 79.968C57.5387 80.4907 57.096 80.912 56.488 81.232C55.8907 81.552 55.1333 81.712 54.216 81.712H52.344V86H50.104V74.832H54.216C55.08 74.832 55.816 74.9813 56.424 75.28C57.032 75.5787 57.4853 75.9893 57.784 76.512C58.0933 77.0347 58.248 77.6267 58.248 78.288ZM54.12 79.904C54.7387 79.904 55.1973 79.7653 55.496 79.488C55.7947 79.2 55.944 78.8 55.944 78.288C55.944 77.2 55.336 76.656 54.12 76.656H52.344V79.904H54.12ZM62.0784 78.512C62.3664 78.0427 62.7397 77.6747 63.1984 77.408C63.6677 77.1413 64.201 77.008 64.7984 77.008V79.36H64.2064C63.5024 79.36 62.969 79.5253 62.6064 79.856C62.2544 80.1867 62.0784 80.7627 62.0784 81.584V86H59.8384V77.136H62.0784V78.512ZM70.2431 86.144C69.3898 86.144 68.6218 85.9573 67.9391 85.584C67.2565 85.2 66.7178 84.6613 66.3231 83.968C65.9391 83.2747 65.7471 82.4747 65.7471 81.568C65.7471 80.6613 65.9445 79.8613 66.3391 79.168C66.7445 78.4747 67.2938 77.9413 67.9871 77.568C68.6805 77.184 69.4538 76.992 70.3071 76.992C71.1605 76.992 71.9338 77.184 72.6271 77.568C73.3205 77.9413 73.8645 78.4747 74.2591 79.168C74.6645 79.8613 74.8671 80.6613 74.8671 81.568C74.8671 82.4747 74.6591 83.2747 74.2431 83.968C73.8378 84.6613 73.2831 85.2 72.5791 85.584C71.8858 85.9573 71.1071 86.144 70.2431 86.144ZM70.2431 84.192C70.6485 84.192 71.0271 84.096 71.3791 83.904C71.7418 83.7013 72.0298 83.4027 72.2431 83.008C72.4565 82.6133 72.5631 82.1333 72.5631 81.568C72.5631 80.7253 72.3391 80.08 71.8911 79.632C71.4538 79.1733 70.9151 78.944 70.2751 78.944C69.6351 78.944 69.0965 79.1733 68.6591 79.632C68.2325 80.08 68.0191 80.7253 68.0191 81.568C68.0191 82.4107 68.2271 83.0613 68.6431 83.52C69.0698 83.968 69.6031 84.192 70.2431 84.192ZM77.6463 76.08C77.2409 76.08 76.9049 75.9573 76.6383 75.712C76.3823 75.456 76.2543 75.1413 76.2543 74.768C76.2543 74.3947 76.3823 74.0853 76.6383 73.84C76.9049 73.584 77.2409 73.456 77.6463 73.456C78.0409 73.456 78.3663 73.584 78.6223 73.84C78.8783 74.0853 79.0063 74.3947 79.0063 74.768C79.0063 75.1413 78.8783 75.456 78.6223 75.712C78.3663 75.9573 78.0409 76.08 77.6463 76.08ZM78.7503 87.456C78.7503 88.4373 78.5049 89.1413 78.0143 89.568C77.5343 90.0053 76.8409 90.224 75.9342 90.224H74.9422V88.32H75.5823C75.9236 88.32 76.1636 88.2507 76.3023 88.112C76.4409 87.984 76.5103 87.7707 76.5103 87.472V77.136H78.7503V87.456ZM89.2034 81.376C89.2034 81.696 89.182 81.984 89.1394 82.24H82.6594C82.7127 82.88 82.9367 83.3813 83.3314 83.744C83.726 84.1067 84.2114 84.288 84.7874 84.288C85.6194 84.288 86.2114 83.9307 86.5634 83.216H88.9794C88.7234 84.0693 88.2327 84.7733 87.5074 85.328C86.782 85.872 85.8914 86.144 84.8354 86.144C83.982 86.144 83.214 85.9573 82.5314 85.584C81.8594 85.2 81.3314 84.6613 80.9474 83.968C80.574 83.2747 80.3874 82.4747 80.3874 81.568C80.3874 80.6507 80.574 79.8453 80.9474 79.152C81.3207 78.4587 81.8434 77.9253 82.5154 77.552C83.1874 77.1787 83.9607 76.992 84.8354 76.992C85.678 76.992 86.43 77.1733 87.0914 77.536C87.7634 77.8987 88.2807 78.416 88.6434 79.088C89.0167 79.7493 89.2034 80.512 89.2034 81.376ZM86.8834 80.736C86.8727 80.16 86.6647 79.7013 86.2594 79.36C85.854 79.008 85.358 78.832 84.7714 78.832C84.2167 78.832 83.7474 79.0027 83.3634 79.344C82.99 79.6747 82.7607 80.1387 82.6754 80.736H86.8834ZM90.2624 81.568C90.2624 80.6507 90.449 79.8507 90.8224 79.168C91.1957 78.4747 91.713 77.9413 92.3744 77.568C93.0357 77.184 93.793 76.992 94.6464 76.992C95.745 76.992 96.6517 77.2693 97.3664 77.824C98.0917 78.368 98.577 79.136 98.8224 80.128H96.4064C96.2784 79.744 96.0597 79.4453 95.7504 79.232C95.4517 79.008 95.0784 78.896 94.6304 78.896C93.9904 78.896 93.4837 79.1307 93.1104 79.6C92.737 80.0587 92.5504 80.7147 92.5504 81.568C92.5504 82.4107 92.737 83.0667 93.1104 83.536C93.4837 83.9947 93.9904 84.224 94.6304 84.224C95.537 84.224 96.129 83.8187 96.4064 83.008H98.8224C98.577 83.968 98.0917 84.7307 97.3664 85.296C96.641 85.8613 95.7344 86.144 94.6464 86.144C93.793 86.144 93.0357 85.9573 92.3744 85.584C91.713 85.2 91.1957 84.6667 90.8224 83.984C90.449 83.2907 90.2624 82.4853 90.2624 81.568ZM103.071 78.976V83.264C103.071 83.5627 103.141 83.7813 103.279 83.92C103.429 84.048 103.674 84.112 104.015 84.112H105.055V86H103.647C101.759 86 100.815 85.0827 100.815 83.248V78.976H99.7594V77.136H100.815V74.944H103.071V77.136H105.055V78.976H103.071ZM114.335 86.112C113.556 86.112 112.852 85.9787 112.223 85.712C111.604 85.4453 111.114 85.0613 110.751 84.56C110.388 84.0587 110.202 83.4667 110.191 82.784H112.591C112.623 83.2427 112.783 83.6053 113.071 83.872C113.37 84.1387 113.775 84.272 114.287 84.272C114.81 84.272 115.22 84.1493 115.519 83.904C115.818 83.648 115.967 83.3173 115.967 82.912C115.967 82.5813 115.866 82.3093 115.663 82.096C115.46 81.8827 115.204 81.7173 114.895 81.6C114.596 81.472 114.18 81.3333 113.647 81.184C112.922 80.9707 112.33 80.7627 111.871 80.56C111.423 80.3467 111.034 80.032 110.703 79.616C110.383 79.1893 110.223 78.624 110.223 77.92C110.223 77.2587 110.388 76.6827 110.719 76.192C111.05 75.7013 111.514 75.328 112.111 75.072C112.708 74.8053 113.391 74.672 114.159 74.672C115.311 74.672 116.244 74.9547 116.959 75.52C117.684 76.0747 118.084 76.8533 118.159 77.856H115.695C115.674 77.472 115.508 77.1573 115.199 76.912C114.9 76.656 114.5 76.528 113.999 76.528C113.562 76.528 113.21 76.64 112.943 76.864C112.687 77.088 112.559 77.4133 112.559 77.84C112.559 78.1387 112.655 78.3893 112.847 78.592C113.05 78.784 113.295 78.944 113.583 79.072C113.882 79.1893 114.298 79.328 114.831 79.488C115.556 79.7013 116.148 79.9147 116.607 80.128C117.066 80.3413 117.46 80.6613 117.791 81.088C118.122 81.5147 118.287 82.0747 118.287 82.768C118.287 83.3653 118.132 83.92 117.823 84.432C117.514 84.944 117.06 85.3547 116.463 85.664C115.866 85.9627 115.156 86.112 114.335 86.112ZM128.469 81.376C128.469 81.696 128.448 81.984 128.405 82.24H121.925C121.978 82.88 122.202 83.3813 122.597 83.744C122.992 84.1067 123.477 84.288 124.053 84.288C124.885 84.288 125.477 83.9307 125.829 83.216H128.245C127.989 84.0693 127.498 84.7733 126.773 85.328C126.048 85.872 125.157 86.144 124.101 86.144C123.248 86.144 122.48 85.9573 121.797 85.584C121.125 85.2 120.597 84.6613 120.213 83.968C119.84 83.2747 119.653 82.4747 119.653 81.568C119.653 80.6507 119.84 79.8453 120.213 79.152C120.586 78.4587 121.109 77.9253 121.781 77.552C122.453 77.1787 123.226 76.992 124.101 76.992C124.944 76.992 125.696 77.1733 126.357 77.536C127.029 77.8987 127.546 78.416 127.909 79.088C128.282 79.7493 128.469 80.512 128.469 81.376ZM126.149 80.736C126.138 80.16 125.93 79.7013 125.525 79.36C125.12 79.008 124.624 78.832 124.037 78.832C123.482 78.832 123.013 79.0027 122.629 79.344C122.256 79.6747 122.026 80.1387 121.941 80.736H126.149ZM132.344 74.16V86H130.104V74.16H132.344ZM142.797 81.376C142.797 81.696 142.776 81.984 142.733 82.24H136.253C136.306 82.88 136.53 83.3813 136.925 83.744C137.32 84.1067 137.805 84.288 138.381 84.288C139.213 84.288 139.805 83.9307 140.157 83.216H142.573C142.317 84.0693 141.826 84.7733 141.101 85.328C140.376 85.872 139.485 86.144 138.429 86.144C137.576 86.144 136.808 85.9573 136.125 85.584C135.453 85.2 134.925 84.6613 134.541 83.968C134.168 83.2747 133.981 82.4747 133.981 81.568C133.981 80.6507 134.168 79.8453 134.541 79.152C134.914 78.4587 135.437 77.9253 136.109 77.552C136.781 77.1787 137.554 76.992 138.429 76.992C139.272 76.992 140.024 77.1733 140.685 77.536C141.357 77.8987 141.874 78.416 142.237 79.088C142.61 79.7493 142.797 80.512 142.797 81.376ZM140.477 80.736C140.466 80.16 140.258 79.7013 139.853 79.36C139.448 79.008 138.952 78.832 138.365 78.832C137.81 78.832 137.341 79.0027 136.957 79.344C136.584 79.6747 136.354 80.1387 136.269 80.736H140.477ZM147.824 86.144C147.099 86.144 146.448 86.016 145.872 85.76C145.296 85.4933 144.837 85.136 144.496 84.688C144.165 84.24 143.984 83.744 143.952 83.2H146.208C146.251 83.5413 146.416 83.824 146.704 84.048C147.003 84.272 147.371 84.384 147.808 84.384C148.235 84.384 148.565 84.2987 148.8 84.128C149.045 83.9573 149.168 83.7387 149.168 83.472C149.168 83.184 149.019 82.9707 148.72 82.832C148.432 82.6827 147.968 82.5227 147.328 82.352C146.667 82.192 146.123 82.0267 145.696 81.856C145.28 81.6853 144.917 81.424 144.608 81.072C144.309 80.72 144.16 80.2453 144.16 79.648C144.16 79.1573 144.299 78.7093 144.576 78.304C144.864 77.8987 145.269 77.5787 145.792 77.344C146.325 77.1093 146.949 76.992 147.664 76.992C148.72 76.992 149.563 77.2587 150.192 77.792C150.821 78.3147 151.168 79.024 151.232 79.92H149.088C149.056 79.568 148.907 79.2907 148.64 79.088C148.384 78.8747 148.037 78.768 147.6 78.768C147.195 78.768 146.88 78.8427 146.656 78.992C146.443 79.1413 146.336 79.3493 146.336 79.616C146.336 79.9147 146.485 80.144 146.784 80.304C147.083 80.4533 147.547 80.608 148.176 80.768C148.816 80.928 149.344 81.0933 149.76 81.264C150.176 81.4347 150.533 81.7013 150.832 82.064C151.141 82.416 151.301 82.8853 151.312 83.472C151.312 83.984 151.168 84.4427 150.88 84.848C150.603 85.2533 150.197 85.5733 149.664 85.808C149.141 86.032 148.528 86.144 147.824 86.144ZM152.575 81.536C152.575 80.64 152.751 79.8453 153.103 79.152C153.466 78.4587 153.951 77.9253 154.559 77.552C155.178 77.1787 155.866 76.992 156.623 76.992C157.284 76.992 157.86 77.1253 158.351 77.392C158.852 77.6587 159.252 77.9947 159.551 78.4V77.136H161.807V86H159.551V84.704C159.263 85.12 158.863 85.4667 158.351 85.744C157.85 86.0107 157.268 86.144 156.607 86.144C155.86 86.144 155.178 85.952 154.559 85.568C153.951 85.184 153.466 84.6453 153.103 83.952C152.751 83.248 152.575 82.4427 152.575 81.536ZM159.551 81.568C159.551 81.024 159.444 80.56 159.231 80.176C159.018 79.7813 158.73 79.4827 158.367 79.28C158.004 79.0667 157.615 78.96 157.199 78.96C156.783 78.96 156.399 79.0613 156.047 79.264C155.695 79.4667 155.407 79.7653 155.183 80.16C154.97 80.544 154.863 81.0027 154.863 81.536C154.863 82.0693 154.97 82.5387 155.183 82.944C155.407 83.3387 155.695 83.6427 156.047 83.856C156.41 84.0693 156.794 84.176 157.199 84.176C157.615 84.176 158.004 84.0747 158.367 83.872C158.73 83.6587 159.018 83.36 159.231 82.976C159.444 82.5813 159.551 82.112 159.551 81.568ZM165.131 76.08C164.736 76.08 164.405 75.9573 164.139 75.712C163.883 75.456 163.755 75.1413 163.755 74.768C163.755 74.3947 163.883 74.0853 164.139 73.84C164.405 73.584 164.736 73.456 165.131 73.456C165.525 73.456 165.851 73.584 166.107 73.84C166.373 74.0853 166.507 74.3947 166.507 74.768C166.507 75.1413 166.373 75.456 166.107 75.712C165.851 75.9573 165.525 76.08 165.131 76.08ZM166.235 77.136V86H163.995V77.136H166.235Z" fill="#274052"/>
<path d="M109.608 50.76V49.432H112.616V61H111.144V50.76H109.608ZM114.941 59.832C116.296 58.744 117.357 57.8533 118.125 57.16C118.893 56.456 119.538 55.7253 120.061 54.968C120.594 54.2 120.861 53.448 120.861 52.712C120.861 52.0187 120.69 51.4747 120.349 51.08C120.018 50.6747 119.48 50.472 118.733 50.472C118.008 50.472 117.442 50.7013 117.037 51.16C116.642 51.608 116.429 52.2107 116.397 52.968H114.989C115.032 51.7733 115.394 50.8507 116.077 50.2C116.76 49.5493 117.64 49.224 118.717 49.224C119.816 49.224 120.685 49.528 121.325 50.136C121.976 50.744 122.301 51.5813 122.301 52.648C122.301 53.5333 122.034 54.3973 121.501 55.24C120.978 56.072 120.381 56.808 119.709 57.448C119.037 58.0773 118.178 58.8133 117.133 59.656H122.637V60.872H114.941V59.832ZM124.144 59.832C125.499 58.744 126.56 57.8533 127.328 57.16C128.096 56.456 128.741 55.7253 129.264 54.968C129.797 54.2 130.064 53.448 130.064 52.712C130.064 52.0187 129.893 51.4747 129.552 51.08C129.221 50.6747 128.683 50.472 127.936 50.472C127.211 50.472 126.645 50.7013 126.24 51.16C125.845 51.608 125.632 52.2107 125.6 52.968H124.192C124.235 51.7733 124.597 50.8507 125.28 50.2C125.963 49.5493 126.843 49.224 127.92 49.224C129.019 49.224 129.888 49.528 130.528 50.136C131.179 50.744 131.504 51.5813 131.504 52.648C131.504 53.5333 131.237 54.3973 130.704 55.24C130.181 56.072 129.584 56.808 128.912 57.448C128.24 58.0773 127.381 58.8133 126.336 59.656H131.84V60.872H124.144V59.832ZM133.523 55.096C133.523 53.2613 133.822 51.832 134.419 50.808C135.017 49.7733 136.062 49.256 137.555 49.256C139.038 49.256 140.078 49.7733 140.675 50.808C141.273 51.832 141.571 53.2613 141.571 55.096C141.571 56.9627 141.273 58.4133 140.675 59.448C140.078 60.4827 139.038 61 137.555 61C136.062 61 135.017 60.4827 134.419 59.448C133.822 58.4133 133.523 56.9627 133.523 55.096ZM140.131 55.096C140.131 54.168 140.067 53.384 139.939 52.744C139.822 52.0933 139.571 51.5707 139.187 51.176C138.814 50.7813 138.27 50.584 137.555 50.584C136.83 50.584 136.275 50.7813 135.891 51.176C135.518 51.5707 135.267 52.0933 135.139 52.744C135.022 53.384 134.963 54.168 134.963 55.096C134.963 56.056 135.022 56.8613 135.139 57.512C135.267 58.1627 135.518 58.6853 135.891 59.08C136.275 59.4747 136.83 59.672 137.555 59.672C138.27 59.672 138.814 59.4747 139.187 59.08C139.571 58.6853 139.822 58.1627 139.939 57.512C140.067 56.8613 140.131 56.056 140.131 55.096ZM152.13 55.768H148.722V59.224H147.362V55.768H143.97V54.536H147.362V51.064H148.722V54.536H152.13V55.768Z" fill="black"/>
<defs>
<filter id="filter0_d_302_5" x="8" y="8" width="194" height="116" filterUnits="userSpaceOnUse" color-interpolation-filters="sRGB">
<feFlood flood-opacity="0" result="BackgroundImageFix"/>
<feColorMatrix in="SourceAlpha" type="matrix" values="0 0 0 0 0 0 0 0 0 0 0 0 0 0 0 0 0 0 127 0" result="hardAlpha"/>
<feOffset/>
<feGaussianBlur stdDeviation="12"/>
<feColorMatrix type="matrix" values="0 0 0 0 0.387784 0 0 0 0 0.387784 0 0 0 0 0.387784 0 0 0 0.09 0"/>
<feBlend mode="normal" in2="BackgroundImageFix" result="effect1_dropShadow_302_5"/>
<feBlend mode="normal" in="SourceGraphic" in2="effect1_dropShadow_302_5" result="shape"/>
</filter>
<filter id="filter1_d_302_5" x="157" y="25" width="31.077" height="31.0769" filterUnits="userSpaceOnUse" color-interpolation-filters="sRGB">
<feFlood flood-opacity="0" result="BackgroundImageFix"/>
<feColorMatrix in="SourceAlpha" type="matrix" values="0 0 0 0 0 0 0 0 0 0 0 0 0 0 0 0 0 0 127 0" result="hardAlpha"/>
<feOffset/>
<feGaussianBlur stdDeviation="0.5"/>
<feColorMatrix type="matrix" values="0 0 0 0 0.992157 0 0 0 0 0.290196 0 0 0 0 0.290196 0 0 0 0.22 0"/>
<feBlend mode="normal" in2="BackgroundImageFix" result="effect1_dropShadow_302_5"/>
<feBlend mode="normal" in="SourceGraphic" in2="effect1_dropShadow_302_5" result="shape"/>
</filter>
<clipPath id="clip0_302_5">
<rect width="24" height="24" fill="white" transform="translate(49 41)"/>
</clipPath>
</defs>
</svg>
