<svg width="72" height="76" viewBox="0 0 72 76" fill="none" xmlns="http://www.w3.org/2000/svg">
<path d="M40.8103 18.2982V11.3201C45.569 12.4573 49.5776 14.6541 52.8362 17.9105C56.0948 21.167 58.2931 25.328 59.431 30.3936H52.4483C50.6897 24.2942 46.8103 20.2624 40.8103 18.2982ZM30.4138 18.2982V11.3201C19.9655 13.3877 13.6034 19.7455 11.3276 30.3936H18.3103C19.8621 24.501 23.8966 20.4692 30.4138 18.2982ZM18.3103 40.0078H11.3276C12.3621 45.9004 14.4052 50.3457 17.4569 53.3437C20.5086 56.3417 24.8276 58.4093 30.4138 59.5465V52.5684C27.7241 51.7413 25.2414 50.139 22.9655 47.7613C20.6897 45.3835 19.1379 42.7991 18.3103 40.0078ZM66.8793 35.5108C66.8793 44.2981 63.8017 51.7672 57.6466 57.9182C51.4914 64.0693 44.069 67.1448 35.3793 67.1448C26.5862 67.1448 19.1121 64.0693 12.9569 57.9182C6.80172 51.7672 3.72414 44.2981 3.72414 35.5108C3.72414 26.7236 6.80172 19.2286 12.9569 13.0259C19.1121 6.82314 26.5862 3.72177 35.3793 3.72177C44.069 3.72177 51.4914 6.82314 57.6466 13.0259C63.8017 19.2286 66.8793 26.7236 66.8793 35.5108ZM63.7759 35.5108C63.7759 27.654 61.0086 20.9344 55.4741 15.3519C49.9397 9.76945 43.2414 6.97821 35.3793 6.97821C27.5172 6.97821 20.7931 9.7436 15.2069 15.2744C9.62069 20.8052 6.82759 27.5506 6.82759 35.5108C6.82759 43.3676 9.62069 50.0873 15.2069 55.6697C20.7931 61.2522 27.5172 64.0435 35.3793 64.0435C43.2414 64.0435 49.9397 61.2522 55.4741 55.6697C61.0086 50.0873 63.7759 43.3676 63.7759 35.5108ZM35.3793 49.9322C31.3448 49.9322 27.931 48.5107 25.1379 45.6678C22.3448 42.8249 20.9483 39.4392 20.9483 35.5108C20.9483 31.4791 22.3448 28.0675 25.1379 25.2763C27.931 22.4851 31.3448 21.0378 35.3793 20.9344C39.3103 21.0378 42.6724 22.4851 45.4655 25.2763C48.2586 28.0675 49.7069 31.4791 49.8103 35.5108C49.7069 39.4392 48.2586 42.8249 45.4655 45.6678C42.6724 48.5107 39.3103 49.9322 35.3793 49.9322ZM46.5517 35.5108C46.5517 32.4095 45.4655 29.7475 43.2931 27.5248C41.1207 25.3022 38.4828 24.1908 35.3793 24.1908C32.2759 24.1908 29.6121 25.3022 27.3879 27.5248C25.1638 29.7475 24.0517 32.4095 24.0517 35.5108C24.0517 38.6122 25.1638 41.2484 27.3879 43.4193C29.6121 45.5903 32.2759 46.6758 35.3793 46.6758C38.4828 46.6758 41.1207 45.5903 43.2931 43.4193C45.4655 41.2484 46.5517 38.6122 46.5517 35.5108ZM40.8103 52.5684V59.5465C51.1552 57.1687 57.3621 50.6559 59.431 40.0078H52.4483C51.4138 42.9024 49.8879 45.5128 47.8707 47.8388C45.8534 50.1648 43.5 51.7413 40.8103 52.5684ZM67.9655 53.964C66.931 53.964 66.0776 54.3 65.4052 54.9719C64.7328 55.6439 64.3966 56.4968 64.3966 57.5306C64.3966 58.461 64.7328 59.2622 65.4052 59.9341C66.0776 60.6061 66.931 60.9421 67.9655 60.9421C68.8966 60.9421 69.6983 60.6061 70.3707 59.9341C71.0431 59.2622 71.3793 58.461 71.3793 57.5306C71.3793 56.4968 71.0431 55.6439 70.3707 54.9719C69.6983 54.3 68.8966 53.964 67.9655 53.964ZM59.431 62.958C58.1897 62.958 57.1293 63.3973 56.25 64.2761C55.3707 65.1548 54.931 66.2144 54.931 67.455C54.931 68.6955 55.3707 69.7551 56.25 70.6339C57.1293 71.5126 58.1897 71.952 59.431 71.952C60.6724 71.952 61.7328 71.5126 62.6121 70.6339C63.4914 69.7551 63.931 68.6955 63.931 67.455C63.931 66.2144 63.4914 65.1548 62.6121 64.2761C61.7328 63.3973 60.6724 62.958 59.431 62.958ZM66.8793 42.4889C65.431 42.4889 64.7069 43.2126 64.7069 44.6599C64.7069 46.0038 65.431 46.6758 66.8793 46.6758C68.2241 46.6758 68.8966 46.0038 68.8966 44.6599C68.8966 43.2126 68.2241 42.4889 66.8793 42.4889ZM4.81034 66.3695C3.36207 66.3695 2.63793 67.0931 2.63793 68.5404C2.63793 70.0911 3.36207 70.8665 4.81034 70.8665C5.43103 70.8665 5.97414 70.6339 6.43966 70.1687C6.90517 69.7035 7.13793 69.1607 7.13793 68.5404C7.13793 67.0931 6.36207 66.3695 4.81034 66.3695ZM4.18966 54.4292C2.74138 54.4292 2.01724 55.1529 2.01724 56.6002C2.01724 58.0475 2.74138 58.7711 4.18966 58.7711C4.7069 58.7711 5.19828 58.5644 5.66379 58.1508C6.12931 57.7373 6.36207 57.2204 6.36207 56.6002C6.36207 55.9799 6.12931 55.463 5.66379 55.0495C5.19828 54.636 4.7069 54.4292 4.18966 54.4292ZM11.1724 59.8566C10.3448 59.8566 9.64655 60.1667 9.07759 60.787C8.50862 61.4073 8.22414 62.0792 8.22414 62.8029C8.22414 63.5266 8.50862 64.1985 9.07759 64.8188C9.64655 65.4391 10.3448 65.7492 11.1724 65.7492C12 65.7492 12.6983 65.4391 13.2672 64.8188C13.8362 64.1985 14.1207 63.5266 14.1207 62.8029C14.1207 62.0792 13.8362 61.4073 13.2672 60.787C12.6983 60.1667 12 59.8566 11.1724 59.8566ZM67.9655 16.1273C66.931 16.1273 66.4138 16.6442 66.4138 17.6779C66.4138 18.6084 66.931 19.0736 67.9655 19.0736C69 19.0736 69.5172 18.6084 69.5172 17.6779C69.5172 16.6442 69 16.1273 67.9655 16.1273ZM2.48276 9.76945C0.827586 9.76945 0 10.6482 0 12.4056C0 14.0597 0.827586 14.8867 2.48276 14.8867C4.13793 14.8867 4.96552 14.0597 4.96552 12.4056C4.96552 10.6482 4.13793 9.76945 2.48276 9.76945ZM8.22414 0.465332C7.39655 0.465332 6.67241 0.775469 6.05172 1.39574C5.43103 2.01602 5.12069 2.79136 5.12069 3.72177C5.12069 4.5488 5.43103 5.27246 6.05172 5.89273C6.67241 6.51301 7.39655 6.82314 8.22414 6.82314C9.15517 6.82314 9.93103 6.51301 10.5517 5.89273C11.1724 5.27246 11.4828 4.5488 11.4828 3.72177C11.4828 2.79136 11.1724 2.01602 10.5517 1.39574C9.93103 0.775469 9.15517 0.465332 8.22414 0.465332ZM3.25862 20.159C2.22414 20.159 1.7069 20.7276 1.7069 21.8648C1.7069 22.8986 2.22414 23.4155 3.25862 23.4155C4.39655 23.4155 4.96552 22.8986 4.96552 21.8648C4.96552 20.7276 4.39655 20.159 3.25862 20.159Z" fill="#274052"/>
</svg>
