<svg width="72" height="72" viewBox="0 0 72 72" fill="none" xmlns="http://www.w3.org/2000/svg">
<path d="M57.6 7.2002H46.8V10.8002H25.2V7.2002H14.4V61.2002H25.2V57.6002H46.8V61.2002H57.6V7.2002ZM21.6 10.8002V14.4002H18V10.8002H21.6ZM54 10.8002V14.4002H50.4V10.8002H54ZM46.8 14.4002V32.4002H25.2V14.4002H46.8ZM21.6 18.0002V21.6002H18V18.0002H21.6ZM54 18.0002V21.6002H50.4V18.0002H54ZM21.6 25.2002V28.8002H18V25.2002H21.6ZM54 25.2002V28.8002H50.4V25.2002H54ZM21.6 32.4002V36.0002H18V32.4002H21.6ZM54 32.4002V36.0002H50.4V32.4002H54ZM46.8 36.0002V54.0002H25.2V36.0002H46.8ZM21.6 39.6002V43.2002H18V39.6002H21.6ZM54 39.6002V43.2002H50.4V39.6002H54ZM21.6 46.8002V50.4002H18V46.8002H21.6ZM54 46.8002V50.4002H50.4V46.8002H54ZM21.6 54.0002V57.6002H18V54.0002H21.6ZM54 54.0002V57.6002H50.4V54.0002H54Z" fill="#274052"/>
</svg>
