<svg width="72" height="72" viewBox="0 0 72 72" fill="none" xmlns="http://www.w3.org/2000/svg">
<g clip-path="url(#clip0_308_177)">
<path d="M4.72453 49.4232C3.03449 45.5518 2.14828 41.5375 1.98121 37.5564L23.1685 13.6633L33.9101 4.158L4.72453 49.4232ZM31.4762 2.43928C24.9806 9.31078 14.3914 19.7871 2.25234 31.6589C4.20098 17.224 15.3933 4.47863 31.4762 2.43928ZM33.5406 69.769C34.3207 47.9661 40.9234 25.5299 50.8026 5.61614C64.1141 12.2207 72.147 27.3158 69.1693 42.486C57.1581 50.9024 45.8506 64.2267 41.7488 69.338C39.0639 69.7929 36.3348 69.9788 33.5406 69.769ZM72.0001 36C72.0001 8.38997 41.9052 -8.96006 17.9594 4.84495C-5.98632 18.65 -5.98632 53.35 17.9594 67.155C41.9052 80.96 72.0001 63.61 72.0001 36Z" fill="#274052"/>
</g>
<defs>
<clipPath id="clip0_308_177">
<rect width="72" height="72" fill="white"/>
</clipPath>
</defs>
</svg>
