<svg width="37" height="37" viewBox="0 0 37 37" fill="none" xmlns="http://www.w3.org/2000/svg">
<path d="M21.5003 17.2859C17.3127 17.2859 11.3754 23.8623 11.3754 28.0134C11.3754 29.8831 12.7892 31 15.1585 31C17.734 31 19.4347 29.6565 21.5003 29.6565C23.5838 29.6565 25.2892 31 27.842 31C30.2114 31 31.6252 29.8831 31.6252 28.0134C31.6252 23.8623 25.6879 17.2859 21.5003 17.2859ZM13.7336 16.6104C13.1852 14.7542 11.4956 13.5521 9.95999 13.9249C8.42438 14.2978 7.62441 16.1047 8.17284 17.9609C8.72128 19.8171 10.4109 21.0193 11.9465 20.6464C13.4821 20.2736 14.2821 18.4666 13.7336 16.6104V16.6104ZM18.2012 15.4972C19.8328 15.0611 20.6491 12.8219 20.0248 10.4959C19.4004 8.16982 17.5716 6.63824 15.94 7.07431C14.3084 7.51037 13.4921 9.74962 14.1165 12.0757C14.7408 14.4017 16.5702 15.9338 18.2012 15.4972ZM33.04 13.9254C31.5044 13.5526 29.8153 14.7547 29.2664 16.6109C28.7179 18.4672 29.5179 20.2741 31.0535 20.6469C32.5891 21.0198 34.2782 19.8177 34.8272 17.9615C35.3756 16.1052 34.5756 14.2983 33.04 13.9254V13.9254ZM24.7993 15.4972C26.4309 15.9333 28.2597 14.4017 28.8841 12.0757C29.5084 9.74962 28.6921 7.51091 27.0605 7.07431C25.4289 6.6377 23.6001 8.16982 22.9758 10.4959C22.3514 12.8219 23.1677 15.0611 24.7993 15.4972V15.4972Z" fill="#FD4A4A"/>
<path d="M12.835 14.51C13.895 14.51 14.725 14.83 15.325 15.47C15.935 16.11 16.24 16.985 16.24 18.095V23H13.3V18.485C13.3 18.035 13.175 17.685 12.925 17.435C12.675 17.185 12.335 17.06 11.905 17.06C11.475 17.06 11.135 17.185 10.885 17.435C10.635 17.685 10.51 18.035 10.51 18.485V23H7.57V18.485C7.57 18.035 7.445 17.685 7.195 17.435C6.955 17.185 6.62 17.06 6.19 17.06C5.75 17.06 5.405 17.185 5.155 17.435C4.905 17.685 4.78 18.035 4.78 18.485V23H1.84V14.585H4.78V15.695C5.04 15.335 5.375 15.05 5.785 14.84C6.205 14.62 6.685 14.51 7.225 14.51C7.845 14.51 8.395 14.645 8.875 14.915C9.365 15.185 9.75 15.565 10.03 16.055C10.33 15.595 10.725 15.225 11.215 14.945C11.705 14.655 12.245 14.51 12.835 14.51ZM25.8907 18.695C25.8907 18.925 25.8757 19.155 25.8457 19.385H20.2807C20.3107 19.845 20.4357 20.19 20.6557 20.42C20.8857 20.64 21.1757 20.75 21.5257 20.75C22.0157 20.75 22.3657 20.53 22.5757 20.09H25.7107C25.5807 20.67 25.3257 21.19 24.9457 21.65C24.5757 22.1 24.1057 22.455 23.5357 22.715C22.9657 22.975 22.3357 23.105 21.6457 23.105C20.8157 23.105 20.0757 22.93 19.4257 22.58C18.7857 22.23 18.2807 21.73 17.9107 21.08C17.5507 20.43 17.3707 19.665 17.3707 18.785C17.3707 17.905 17.5507 17.145 17.9107 16.505C18.2707 15.855 18.7707 15.355 19.4107 15.005C20.0607 14.655 20.8057 14.48 21.6457 14.48C22.4757 14.48 23.2107 14.65 23.8507 14.99C24.4907 15.33 24.9907 15.82 25.3507 16.46C25.7107 17.09 25.8907 17.835 25.8907 18.695ZM22.8907 17.96C22.8907 17.6 22.7707 17.32 22.5307 17.12C22.2907 16.91 21.9907 16.805 21.6307 16.805C21.2707 16.805 20.9757 16.905 20.7457 17.105C20.5157 17.295 20.3657 17.58 20.2957 17.96H22.8907ZM5.755 35.105C4.915 35.105 4.16 34.93 3.49 34.58C2.83 34.23 2.31 33.73 1.93 33.08C1.55 32.43 1.36 31.665 1.36 30.785C1.36 29.915 1.55 29.155 1.93 28.505C2.32 27.855 2.845 27.355 3.505 27.005C4.175 26.655 4.93 26.48 5.77 26.48C6.61 26.48 7.36 26.655 8.02 27.005C8.69 27.355 9.215 27.855 9.595 28.505C9.985 29.155 10.18 29.915 10.18 30.785C10.18 31.655 9.985 32.42 9.595 33.08C9.215 33.73 8.69 34.23 8.02 34.58C7.35 34.93 6.595 35.105 5.755 35.105ZM5.755 32.555C6.165 32.555 6.505 32.405 6.775 32.105C7.055 31.795 7.195 31.355 7.195 30.785C7.195 30.215 7.055 29.78 6.775 29.48C6.505 29.18 6.17 29.03 5.77 29.03C5.37 29.03 5.035 29.18 4.765 29.48C4.495 29.78 4.36 30.215 4.36 30.785C4.36 31.365 4.49 31.805 4.75 32.105C5.01 32.405 5.345 32.555 5.755 32.555ZM23.8111 26.585L21.6661 35H18.3661L17.1961 29.9L15.9811 35H12.6961L10.5661 26.585H13.4911L14.4361 32.165L15.6811 26.585H18.8311L20.1211 32.18L21.0511 26.585H23.8111Z" fill="#274052"/>
</svg>
