<svg width="179" height="53" viewBox="0 0 179 53" fill="none" xmlns="http://www.w3.org/2000/svg">
<g clip-path="url(#clip0_306_146)">
<path d="M24.5004 26.1432C17.5211 26.1432 7.62562 37.1038 7.62562 44.0224C7.62562 47.1384 9.98194 49 13.9308 49C18.2234 49 21.0578 46.7608 24.5004 46.7608C27.973 46.7608 30.8153 49 35.0701 49C39.0189 49 41.3753 47.1384 41.3753 44.0224C41.3753 37.1038 31.4798 26.1432 24.5004 26.1432ZM11.556 25.0173C10.642 21.9236 7.826 19.9201 5.26666 20.5415C2.70731 21.1629 1.37402 24.1745 2.28807 27.2682C3.20213 30.3619 6.01811 32.3654 8.57746 31.744C11.1368 31.1226 12.4701 28.111 11.556 25.0173V25.0173ZM19.0021 23.162C21.7214 22.4352 23.0819 18.7032 22.0413 14.8264C21.0007 10.9497 17.9527 8.39707 15.2333 9.12384C12.514 9.85062 11.1535 13.5827 12.1941 17.4594C13.2347 21.3361 16.2836 23.8897 19.0021 23.162ZM43.7333 20.5424C41.174 19.921 38.3589 21.9245 37.444 25.0182C36.5299 28.1119 37.8632 31.1235 40.4225 31.7449C42.9819 32.3663 45.797 30.3628 46.7119 27.2691C47.626 24.1754 46.2927 21.1638 43.7333 20.5424V20.5424ZM29.9988 23.162C32.7181 23.8888 35.7661 21.3361 36.8068 17.4594C37.8474 13.5827 36.4868 9.85151 33.7675 9.12384C31.0482 8.39617 28.0002 10.9497 26.9596 14.8264C25.919 18.7032 27.2795 22.4352 29.9988 23.162V23.162Z" fill="#FD4A4A"/>
<path d="M37.984 21.44V44H31.712V34.944H24.064V44H17.792V21.44H24.064V29.92H31.712V21.44H37.984ZM58.7253 34.816C58.7253 35.3067 58.6933 35.7973 58.6293 36.288H46.7573C46.8213 37.2693 47.0879 38.0053 47.5573 38.496C48.0479 38.9653 48.6666 39.2 49.4133 39.2C50.4586 39.2 51.2053 38.7307 51.6533 37.792H58.3413C58.0639 39.0293 57.5199 40.1387 56.7093 41.12C55.9199 42.08 54.9173 42.8373 53.7013 43.392C52.4853 43.9467 51.1413 44.224 49.6693 44.224C47.8986 44.224 46.3199 43.8507 44.9333 43.104C43.5679 42.3573 42.4906 41.2907 41.7013 39.904C40.9333 38.5173 40.5493 36.8853 40.5493 35.008C40.5493 33.1307 40.9333 31.5093 41.7013 30.144C42.4693 28.7573 43.5359 27.6907 44.9013 26.944C46.2879 26.1973 47.8773 25.824 49.6693 25.824C51.4399 25.824 53.0079 26.1867 54.3733 26.912C55.7386 27.6373 56.8053 28.6827 57.5733 30.048C58.3413 31.392 58.7253 32.9813 58.7253 34.816ZM52.3253 33.248C52.3253 32.48 52.0693 31.8827 51.5573 31.456C51.0453 31.008 50.4053 30.784 49.6373 30.784C48.8693 30.784 48.2399 30.9973 47.7493 31.424C47.2586 31.8293 46.9386 32.4373 46.7893 33.248H52.3253ZM80.62 26.048L69.228 52.544H62.412L66.7 43.232L59.34 26.048H66.316L70.092 36.224L73.74 26.048H80.62ZM108.597 21.44V44H102.325V31.552L98.0688 44H92.8208L88.5328 31.456V44H82.2608V21.44H89.8448L95.5088 36.096L101.045 21.44H108.597ZM129.319 34.816C129.319 35.3067 129.287 35.7973 129.223 36.288H117.351C117.415 37.2693 117.682 38.0053 118.151 38.496C118.642 38.9653 119.26 39.2 120.007 39.2C121.052 39.2 121.799 38.7307 122.247 37.792H128.935C128.658 39.0293 128.114 40.1387 127.303 41.12C126.514 42.08 125.511 42.8373 124.295 43.392C123.079 43.9467 121.735 44.224 120.263 44.224C118.492 44.224 116.914 43.8507 115.527 43.104C114.162 42.3573 113.084 41.2907 112.295 39.904C111.527 38.5173 111.143 36.8853 111.143 35.008C111.143 33.1307 111.527 31.5093 112.295 30.144C113.063 28.7573 114.13 27.6907 115.495 26.944C116.882 26.1973 118.471 25.824 120.263 25.824C122.034 25.824 123.602 26.1867 124.967 26.912C126.332 27.6373 127.399 28.6827 128.167 30.048C128.935 31.392 129.319 32.9813 129.319 34.816ZM122.919 33.248C122.919 32.48 122.663 31.8827 122.151 31.456C121.639 31.008 120.999 30.784 120.231 30.784C119.463 30.784 118.834 30.9973 118.343 31.424C117.852 31.8293 117.532 32.4373 117.383 33.248H122.919ZM140.238 44.224C138.446 44.224 136.835 43.8507 135.406 43.104C133.998 42.3573 132.888 41.2907 132.078 39.904C131.267 38.5173 130.862 36.8853 130.862 35.008C130.862 33.152 131.267 31.5307 132.078 30.144C132.91 28.7573 134.03 27.6907 135.438 26.944C136.867 26.1973 138.478 25.824 140.27 25.824C142.062 25.824 143.662 26.1973 145.07 26.944C146.499 27.6907 147.619 28.7573 148.43 30.144C149.262 31.5307 149.678 33.152 149.678 35.008C149.678 36.864 149.262 38.496 148.43 39.904C147.619 41.2907 146.499 42.3573 145.07 43.104C143.64 43.8507 142.03 44.224 140.238 44.224ZM140.238 38.784C141.112 38.784 141.838 38.464 142.414 37.824C143.011 37.1627 143.31 36.224 143.31 35.008C143.31 33.792 143.011 32.864 142.414 32.224C141.838 31.584 141.123 31.264 140.27 31.264C139.416 31.264 138.702 31.584 138.126 32.224C137.55 32.864 137.262 33.792 137.262 35.008C137.262 36.2453 137.539 37.184 138.094 37.824C138.648 38.464 139.363 38.784 140.238 38.784ZM178.758 26.048L174.182 44H167.142L164.646 33.12L162.054 44H155.046L150.502 26.048H156.742L158.758 37.952L161.414 26.048H168.134L170.886 37.984L172.87 26.048H178.758Z" fill="#274052"/>
</g>
<defs>
<clipPath id="clip0_306_146">
<rect width="179" height="53" fill="white"/>
</clipPath>
</defs>
</svg>
